<?xml version="1.0" encoding="utf-8"?>
<!-- Generator: Adobe Illustrator 16.0.0, SVG Export Plug-In . SVG Version: 6.00 Build 0)  -->
<!DOCTYPE svg PUBLIC "-//W3C//DTD SVG 1.1//EN" "http://www.w3.org/Graphics/SVG/1.1/DTD/svg11.dtd">
<svg version="1.1" id="Layer_1" xmlns="http://www.w3.org/2000/svg" xmlns:xlink="http://www.w3.org/1999/xlink" x="0px" y="0px"
	 width="136.693px" height="33.98px" viewBox="0 0 136.693 33.98" enable-background="new 0 0 136.693 33.98" xml:space="preserve">
<g id="Layer_1_1_" display="none">
</g>
<path fill="#2BBD3E" d="M7.116,14.233C2.973,14.233,0,11.145,0,7.327V7.289c0-3.816,3.01-6.942,7.154-6.942
	c4.143,0,7.116,3.088,7.116,6.902v0.039C14.271,11.106,11.259,14.233,7.116,14.233z M11.182,7.289c0-2.302-1.688-4.221-4.066-4.221
	S3.089,4.949,3.089,7.25v0.039c0,2.301,1.688,4.219,4.066,4.219s4.028-1.879,4.028-4.181L11.182,7.289L11.182,7.289z"/>
<path fill="#2BBD3E" d="M23.209,14.002l-2.686-4.201l-1.019,1.074v3.127H16.59V0h2.916v7.461l3.414-3.738h3.49l-3.913,4.047
	l4.048,6.232H23.209z"/>
<path fill="#2BBD3E" d="M33.49,14.002h-5.236V0.576h5.236c4.219,0,7.136,2.896,7.136,6.674v0.039
	C40.625,11.068,37.708,14.002,33.49,14.002z M37.536,7.289c0-2.379-1.631-4.047-4.047-4.047h-2.282v8.094h2.282
	c2.416,0,4.047-1.631,4.047-4.009V7.289z"/>
<path fill="#2BBD3E" d="M47.99,14.233c-3.184,0-5.544-2.359-5.544-5.313V8.881c0-2.954,2.379-5.352,5.582-5.352
	c3.184,0,5.543,2.359,5.543,5.312V8.88C53.572,11.834,51.194,14.233,47.99,14.233z M50.696,8.881c0-1.516-1.094-2.839-2.705-2.839
	c-1.669,0-2.667,1.285-2.667,2.8v0.039c0,1.518,1.094,2.841,2.705,2.841c1.669,0,2.667-1.286,2.667-2.803V8.881z"/>
<path fill="#2BBD3E" d="M61.723,6.579c-1.938,0-3.126,1.17-3.126,3.626v3.797h-2.915V3.721h2.915v2.07
	c0.595-1.42,1.554-2.34,3.278-2.264v3.05L61.723,6.579L61.723,6.579z"/>
<path fill="#2BBD3E" d="M70.317,14.002L67.63,9.801l-1.017,1.074v3.127h-2.915V0h2.915v7.461l3.413-3.738h3.492l-3.914,4.047
	l4.047,6.232H70.317z"/>
<path d="M86.428,14.213c-1.844,0-3.031-0.998-3.801-2.107v1.896h-1.477V0h1.477v6.08c0.809-1.188,1.979-2.205,3.801-2.205
	c2.377,0,4.734,1.879,4.734,5.159C91.164,12.295,88.824,14.213,86.428,14.213z M86.158,5.198c-1.84,0-3.586,1.534-3.586,3.836
	c0,2.321,1.746,3.854,3.586,3.854c1.918,0,3.492-1.418,3.492-3.838C89.651,6.694,88.039,5.198,86.158,5.198z"/>
<path d="M98.24,14.328c-0.846,2.053-1.803,2.8-3.301,2.8c-0.824,0-1.438-0.172-2.109-0.498l0.5-1.171
	c0.479,0.25,0.92,0.365,1.553,0.365c0.885,0,1.439-0.461,2.033-1.861l-4.508-9.877h1.631l3.605,8.269l3.184-8.269h1.574
	L98.24,14.328z"/>
<path d="M10.012,33.75L3.51,25.215v8.535H0.595V20.324h2.723L9.61,28.59v-8.266h2.915V33.75H10.012z"/>
<path d="M22.269,33.981c-4.145,0-7.116-3.088-7.116-6.905v-0.038c0-3.815,3.012-6.941,7.155-6.941c4.143,0,7.113,3.088,7.113,6.902
	v0.039C29.423,30.854,26.411,33.981,22.269,33.981z M26.335,27.037c0-2.302-1.688-4.221-4.064-4.221s-4.028,1.881-4.028,4.182v0.039
	c0,2.301,1.688,4.219,4.067,4.219c2.378,0,4.025-1.879,4.025-4.181V27.037z"/>
<path d="M41.178,33.75l-1.229-3.012h-5.678l-1.229,3.012h-3.011l5.754-13.521h2.724l5.756,13.521H41.178z M37.112,23.776
	l-1.784,4.354h3.567L37.112,23.776z"/>
<path d="M54.739,33.75v-5.39h-5.447v5.391h-2.954V20.324h2.954v5.312h5.447v-5.312h2.953V33.75H54.739z"/>
<path d="M75.137,33.75l-4.162-5.717l-1.558,1.612v4.104h-2.959V20.324h2.959v5.868l5.449-5.868h3.567l-5.467,5.696l5.719,7.729
	L75.137,33.75L75.137,33.75z"/>
<path d="M90.08,33.75l-1.229-3.012h-5.679l-1.227,3.012h-3.013l5.755-13.521h2.725l5.754,13.521H90.08z M86.012,23.776l-1.784,4.354
	h3.566L86.012,23.776z"/>
<path d="M100.837,33.981c-4.182,0-7.059-2.938-7.059-6.905v-0.038c0-3.815,2.973-6.941,7.039-6.941c2.416,0,3.873,0.65,5.271,1.841
	l-1.857,2.244c-1.037-0.862-1.957-1.362-3.511-1.362c-2.147,0-3.854,1.897-3.854,4.182v0.039c0,2.455,1.688,4.258,4.063,4.258
	c1.073,0,2.034-0.269,2.78-0.807v-1.917h-2.973V26.02h5.832v5.832C105.191,33.022,103.292,33.981,100.837,33.981z"/>
<path d="M119.404,33.75l-1.229-3.012h-5.676l-1.229,3.012h-3.014l5.755-13.521h2.726l5.754,13.521H119.404z M115.337,23.776
	l-1.782,4.354h3.565L115.337,23.776z"/>
<path d="M133.98,33.75l-6.502-8.535v8.535h-2.914V20.324h2.723l6.291,8.266v-8.266h2.916V33.75H133.98z"/>
</svg>
